<svg width="120" height="121" viewBox="0 0 120 121" fill="none" xmlns="http://www.w3.org/2000/svg">
<circle cx="60" cy="60.5" r="60" fill="#F9C23C"/>
<circle cx="60" cy="60.5" r="48" fill="#E19F3C"/>
<path d="M56.7039 20.7202C58.6964 19.3781 61.3036 19.3781 63.2961 20.7202L88.573 37.7461C90.2009 38.8426 91.1769 40.6768 91.1769 42.6395V78.3605C91.1769 80.3232 90.2009 82.1574 88.573 83.2539L63.2961 100.28C61.3036 101.622 58.6964 101.622 56.7039 100.28L31.427 83.2539C29.7991 82.1574 28.8231 80.3232 28.8231 78.3605V42.6395C28.8231 40.6768 29.7991 38.8426 31.427 37.7461L56.7039 20.7202Z" fill="#F9C23C"/>
<path d="M58.3166 41.6809C58.8465 40.0502 61.1535 40.0502 61.6834 41.6809L64.9909 51.8606C65.2279 52.5898 65.9075 53.0836 66.6743 53.0836H77.3779C79.0925 53.0836 79.8054 55.2777 78.4182 56.2856L69.7589 62.5769C69.1385 63.0277 68.8789 63.8266 69.1159 64.5559L72.4235 74.7355C72.9533 76.3662 71.0869 77.7223 69.6997 76.7144L61.0404 70.4231C60.42 69.9723 59.58 69.9723 58.9596 70.4231L50.3003 76.7144C48.9131 77.7223 47.0467 76.3662 47.5765 74.7355L50.8841 64.5559C51.1211 63.8266 50.8615 63.0277 50.2411 62.5769L41.5818 56.2856C40.1946 55.2777 40.9075 53.0836 42.6221 53.0836H53.3257C54.0925 53.0836 54.7721 52.5898 55.0091 51.8606L58.3166 41.6809Z" fill="#E19F3C"/>
</svg>
