<svg width="120" height="120" viewBox="0 0 120 120" fill="none" xmlns="http://www.w3.org/2000/svg">
<circle cx="60" cy="60" r="60" fill="#F9C23C"/>
<circle cx="60" cy="60" r="48" fill="#D1963D"/>
<path d="M56.7039 20.2202C58.6964 18.8781 61.3036 18.8781 63.2961 20.2202L88.573 37.2461C90.2009 38.3426 91.1769 40.1768 91.1769 42.1395V77.8605C91.1769 79.8232 90.2009 81.6574 88.573 82.7539L63.2961 99.7798C61.3036 101.122 58.6964 101.122 56.7039 99.7798L31.427 82.7539C29.7991 81.6574 28.8231 79.8232 28.8231 77.8605V42.1395C28.8231 40.1768 29.7991 38.3426 31.427 37.2461L56.7039 20.2202Z" fill="#F9C23C"/>
<path d="M58.3166 41.1809C58.8465 39.5502 61.1535 39.5502 61.6834 41.1809L64.9909 51.3606C65.2279 52.0898 65.9075 52.5836 66.6743 52.5836H77.3779C79.0925 52.5836 79.8054 54.7777 78.4182 55.7856L69.7589 62.0769C69.1385 62.5277 68.8789 63.3266 69.1159 64.0559L72.4235 74.2355C72.9533 75.8662 71.0869 77.2223 69.6997 76.2144L61.0404 69.9231C60.42 69.4723 59.58 69.4723 58.9596 69.9231L50.3003 76.2144C48.9131 77.2223 47.0467 75.8662 47.5765 74.2355L50.8841 64.0559C51.1211 63.3266 50.8615 62.5277 50.2411 62.0769L41.5818 55.7856C40.1946 54.7777 40.9075 52.5836 42.6221 52.5836H53.3257C54.0925 52.5836 54.7721 52.0898 55.0091 51.3606L58.3166 41.1809Z" fill="#D1963D"/>
</svg>
